<svg width="60" height="56" viewBox="0 0 60 56" fill="none" xmlns="http://www.w3.org/2000/svg">
<path d="M50.625 0H9.375C4.20547 0 0 4.22197 0 9.41177V42.3529C0 47.5427 4.20547 51.7647 9.375 51.7647H31.6406C32.5346 51.7647 33.3508 51.2541 33.745 50.4481C34.1386 49.6425 34.0416 48.6815 33.4941 47.972L27.3637 40.0179L44.355 18.3208L55.3125 31.4439V35.4118C55.3125 36.7114 56.3617 37.7647 57.6562 37.7647C58.9508 37.7647 60 36.7114 60 35.4118V9.41177C60 4.22197 55.7945 0 50.625 0V0ZM46.0931 13.0767C45.6395 12.5335 44.967 12.2233 44.2603 12.2358C43.5539 12.2468 42.8906 12.5767 42.4544 13.1342L24.4057 36.1806L18.2597 28.2073C17.8157 27.631 17.1313 27.2941 16.4062 27.2941C16.4053 27.2941 16.404 27.2941 16.403 27.2941C15.6766 27.295 14.9913 27.6342 14.5486 28.2123L9.39056 34.9439C8.60138 35.9743 8.79318 37.4513 9.81903 38.2436C10.8453 39.0363 12.3166 38.8433 13.1058 37.8134L16.4117 33.4991L26.8634 47.0588H9.375C6.79047 47.0588 4.6875 44.9476 4.6875 42.3529V9.41177C4.6875 6.8171 6.79047 4.70588 9.375 4.70588H50.625C53.2095 4.70588 55.3125 6.8171 55.3125 9.41177V24.1186L46.0931 13.0767ZM16.4062 8.47059C12.529 8.47059 9.375 11.6369 9.375 15.5294C9.375 19.4219 12.529 22.5882 16.4062 22.5882C20.2835 22.5882 23.4375 19.4219 23.4375 15.5294C23.4375 11.6369 20.2835 8.47059 16.4062 8.47059ZM16.4062 17.8824C15.114 17.8824 14.0625 16.8267 14.0625 15.5294C14.0625 14.2321 15.114 13.1765 16.4062 13.1765C17.6985 13.1765 18.75 14.2321 18.75 15.5294C18.75 16.8267 17.6985 17.8824 16.4062 17.8824ZM60 44.8235C60 46.1232 58.9508 47.1765 57.6562 47.1765H51.2109V53.6471C51.2109 54.9467 50.1617 56 48.8672 56C47.5726 56 46.5234 54.9467 46.5234 53.6471V47.1765H40.0781C38.7836 47.1765 37.7344 46.1232 37.7344 44.8235C37.7344 43.5239 38.7836 42.4706 40.0781 42.4706H46.5234V36C46.5234 34.7004 47.5726 33.6471 48.8672 33.6471C50.1617 33.6471 51.2109 34.7004 51.2109 36V42.4706H57.6562C58.9508 42.4706 60 43.5239 60 44.8235Z" fill="white" fill-opacity="0.29"/>
</svg>
